<?xml version="1.0" encoding="utf-8"?>
<!-- Generator: Adobe Illustrator 23.1.0, SVG Export Plug-In . SVG Version: 6.00 Build 0)  -->
<svg version="1.1" id="图层_1" xmlns="http://www.w3.org/2000/svg" xmlns:xlink="http://www.w3.org/1999/xlink" x="0px" y="0px"
	 viewBox="0 0 1024 1024" style="enable-background:new 0 0 1024 1024;" xml:space="preserve">
<style type="text/css">
</style>
<g>
	<g>
		<path class="st0" d="M763.63,416.6c-5.13,0-10.27-1.96-14.17-5.89l-301.89-303.3c-2.32-2.33-5.04-2.68-6.45-2.68
			c-1.41,0-4.13,0.35-6.45,2.68l-301.89,303.3c-7.79,7.83-20.46,7.86-28.28,0.07s-7.86-20.46-0.07-28.28l301.89-303.3
			c9.28-9.33,21.64-14.46,34.8-14.46c13.16,0,25.52,5.14,34.8,14.46l301.89,303.3c7.79,7.83,7.76,20.49-0.07,28.28
			C773.84,414.66,768.73,416.6,763.63,416.6z"/>
		<path class="st0" d="M394.4,925.83H146.46V355.56c0-11.05,8.95-20,20-20s20,8.95,20,20v530.28H394.4c11.05,0,20,8.95,20,20
			S405.44,925.83,394.4,925.83z"/>
		<path class="st0" d="M715.77,592.95c-11.05,0-20-8.95-20-20V355.56c0-11.05,8.95-20,20-20s20,8.95,20,20v217.39
			C735.77,584,726.82,592.95,715.77,592.95z"/>
	</g>
	<g>
		<path class="st0" d="M749.06,891.21H646.93c-11.05,0-20-8.95-20-20s8.95-20,20-20h97.78V685.64H478.8v165.56h70.45
			c11.05,0,20,8.95,20,20s-8.95,20-20,20h-74.8c-19.66,0-35.65-15.99-35.65-35.65V681.29c0-19.66,15.99-35.65,35.65-35.65h274.61
			c19.66,0,35.65,15.99,35.65,35.65v174.26C784.71,875.21,768.72,891.21,749.06,891.21z"/>
		<path class="st0" d="M889.69,795.77H769.85c-11.05,0-20-8.95-20-20s8.95-20,20-20h60.76l-12.55-31.39c-0.49-1.23-1.67-2.03-3-2.03
			h-45.21c-11.05,0-20-8.95-20-20s8.95-20,20-20h45.21c17.78,0,33.53,10.67,40.13,27.17L889.69,795.77z"/>
		<path class="st0" d="M796.15,883.86h-30.46c-11.05,0-20-8.95-20-20s8.95-20,20-20h30.46c11.05,0,20,8.95,20,20
			S807.2,883.86,796.15,883.86z"/>
		<path class="st0" d="M892.56,883.86h-19.93c-11.05,0-20-8.95-20-20s8.95-20,20-20h13.53v-48.1H765.69c-11.05,0-20-8.95-20-20
			s8.95-20,20-20h126.87c18.53,0,33.6,15.07,33.6,33.6v60.89C926.16,868.79,911.09,883.86,892.56,883.86z M892.56,795.77
			L892.56,795.77L892.56,795.77z"/>
		<path class="st0" d="M603.2,927.91c-31.27,0-56.71-25.44-56.71-56.71s25.44-56.71,56.71-56.71s56.71,25.44,56.71,56.71
			S634.46,927.91,603.2,927.91z M603.2,854.5c-9.21,0-16.71,7.5-16.71,16.71c0,9.21,7.5,16.71,16.71,16.71
			c9.21,0,16.71-7.5,16.71-16.71C619.9,861.99,612.41,854.5,603.2,854.5z"/>
		<path class="st0" d="M835.92,927.91c-31.27,0-56.71-25.44-56.71-56.71s25.44-56.71,56.71-56.71s56.71,25.44,56.71,56.71
			S867.19,927.91,835.92,927.91z M835.92,854.5c-9.21,0-16.71,7.5-16.71,16.71c0,9.21,7.5,16.71,16.71,16.71s16.71-7.5,16.71-16.71
			C852.63,861.99,845.14,854.5,835.92,854.5z"/>
	</g>
	<g>
		<path class="st0" d="M678.79,776.86H558.11c-11.05,0-20-8.95-20-20s8.95-20,20-20h120.68c11.05,0,20,8.95,20,20
			S689.84,776.86,678.79,776.86z"/>
		<path class="st0" d="M653.83,818.47c-5.73,0-11.42-2.45-15.38-7.2c-7.07-8.49-5.92-21.1,2.56-28.17l32.29-26.91l-28.78-26.16
			c-8.17-7.43-8.78-20.08-1.35-28.25c7.43-8.17,20.08-8.78,28.25-1.35l38.3,34.82c6.16,5.6,9.6,13.59,9.42,21.92
			s-3.95,16.17-10.35,21.5l-42.18,35.15C662.89,816.95,658.35,818.47,653.83,818.47z M682.84,764.86h0.01H682.84z"/>
	</g>
	<path class="st0" d="M550.35,361.78h-216.4c-11.05,0-20-8.95-20-20s8.95-20,20-20h216.4c11.05,0,20,8.95,20,20
		S561.4,361.78,550.35,361.78z"/>
	<path class="st0" d="M550.35,461.65h-216.4c-11.05,0-20-8.95-20-20s8.95-20,20-20h216.4c11.05,0,20,8.95,20,20
		S561.4,461.65,550.35,461.65z"/>
</g>
</svg>
