<?xml version="1.0" encoding="utf-8"?>
<!-- Generator: Adobe Illustrator 23.1.0, SVG Export Plug-In . SVG Version: 6.00 Build 0)  -->
<svg version="1.1" id="图层_1" xmlns="http://www.w3.org/2000/svg" xmlns:xlink="http://www.w3.org/1999/xlink" x="0px" y="0px"
	 viewBox="0 0 1024 1024" style="enable-background:new 0 0 1024 1024;" xml:space="preserve">
<style type="text/css">
</style>
<g>
	<path class="st0" d="M709.17,948.38H195.3c-52.98,0-96.09-43.11-96.09-96.09V162.42c0-52.98,43.1-96.09,96.09-96.09h552.91
		c52.98,0,96.09,43.1,96.09,96.09v375.37c0,11.05-8.95,20-20,20s-20-8.95-20-20V162.42c0-30.93-25.16-56.09-56.09-56.09H195.3
		c-30.93,0-56.09,25.16-56.09,56.09v689.87c0,30.93,25.16,56.09,56.09,56.09h513.87c11.05,0,20,8.95,20,20
		S720.22,948.38,709.17,948.38z"/>
	<g>
		<path class="st0" d="M909.28,765.77c-6.39,0-12.68-3.06-16.55-8.74l-77.98-114.48l-87.65,110.58c-6.86,8.66-19.44,10.11-28.1,3.25
			c-8.66-6.86-10.11-19.44-3.25-28.1l96.06-121.18c5.91-7.46,15.12-11.71,24.63-11.36c9.51,0.34,18.39,5.25,23.74,13.11l85.6,125.67
			c6.22,9.13,3.86,21.57-5.27,27.79C917.08,764.64,913.16,765.77,909.28,765.77z"/>
		<path class="st0" d="M810.35,958.52c-11.05,0-20-8.95-20-20V705.18c0-11.05,8.95-20,20-20s20,8.95,20,20v233.34
			C830.35,949.57,821.39,958.52,810.35,958.52z"/>
	</g>
	<path class="st0" d="M616.32,273.73H322.11c-11.05,0-20-8.95-20-20s8.95-20,20-20h294.21c11.05,0,20,8.95,20,20
		S627.37,273.73,616.32,273.73z"/>
	<path class="st0" d="M616.32,436.53H322.11c-11.05,0-20-8.95-20-20s8.95-20,20-20h294.21c11.05,0,20,8.95,20,20
		S627.37,436.53,616.32,436.53z"/>
	<path class="st0" d="M667.05,588.53H311.97c-11.05,0-20-8.95-20-20s8.95-20,20-20h355.08c11.05,0,20,8.95,20,20
		S678.09,588.53,667.05,588.53z"/>
</g>
</svg>
