<?xml version="1.0" standalone="no"?><!DOCTYPE svg PUBLIC "-//W3C//DTD SVG 1.1//EN" "http://www.w3.org/Graphics/SVG/1.1/DTD/svg11.dtd"><svg t="1581571894437" class="icon" viewBox="0 0 1024 1024" version="1.1" xmlns="http://www.w3.org/2000/svg" p-id="3058" xmlns:xlink="http://www.w3.org/1999/xlink" width="128" height="128"><defs><style type="text/css"></style></defs><path d="M784.384 855.552c0 32.768-26.624 59.392-59.392 59.392H299.008c-32.768 0-59.392-26.624-59.392-59.392V227.328h544.256v628.224zM357.888 121.344c0-6.656 5.12-12.288 12.288-12.288h284.16c6.656 0 12.288 5.12 12.288 12.288v35.84H357.888v-35.84z m603.648 35.84H737.28v-35.84c0-45.568-37.376-82.432-82.432-82.432H370.176c-45.568 0-82.432 37.376-82.432 82.432v35.84h-225.28c-19.968 0-35.84 15.872-35.84 35.84s15.872 35.84 35.84 35.84h105.984v627.2c0 72.192 58.368 130.56 130.56 130.56h425.984c72.192 0 130.56-58.368 130.56-130.56V227.328h105.984c19.968 0 35.84-15.872 35.84-35.84s-15.872-34.304-35.84-34.304zM512 807.936c19.968 0 35.84-15.872 35.84-35.84V392.704c0-19.968-15.872-35.84-35.84-35.84s-35.84 15.872-35.84 35.84v379.392c0 19.456 15.872 35.84 35.84 35.84m-165.888 0c19.968 0 35.84-15.872 35.84-35.84V392.704c0-19.968-15.872-35.84-35.84-35.84s-35.84 15.872-35.84 35.84v379.392c0.512 19.456 16.896 35.84 35.84 35.84m331.776 0c19.968 0 35.84-15.872 35.84-35.84V392.704c0-19.968-15.872-35.84-35.84-35.84s-35.84 15.872-35.84 35.84v379.392c0.512 19.456 16.384 35.84 35.84 35.84" p-id="3059" fill="#666666"></path></svg>