<?xml version="1.0" encoding="utf-8"?>
<!-- Generator: Adobe Illustrator 23.1.0, SVG Export Plug-In . SVG Version: 6.00 Build 0)  -->
<svg version="1.1" id="图层_1" xmlns="http://www.w3.org/2000/svg" xmlns:xlink="http://www.w3.org/1999/xlink" x="0px" y="0px"
	 viewBox="0 0 1024 1024" style="enable-background:new 0 0 1024 1024;" xml:space="preserve">
<style type="text/css">
</style>
<g>
	<path class="st0" d="M574.06,865.65c-11.05,0-20-8.95-20-20V103.39h-84.63v742.26c0,11.05-8.95,20-20,20c-11.05,0-20-8.95-20-20
		V91.52c0-15.51,12.62-28.13,28.13-28.13h108.37c15.51,0,28.13,12.62,28.13,28.13v754.13C594.06,856.7,585.11,865.65,574.06,865.65z
		"/>
	<path class="st0" d="M728.2,957.59H295.29c-13.26,0-24.04-10.79-24.04-24.04v-82.99c0-13.26,10.79-24.04,24.04-24.04H728.2
		c13.26,0,24.04,10.79,24.04,24.04v82.99C752.24,946.8,741.46,957.59,728.2,957.59z M311.25,917.59h401v-51.08h-401V917.59z"/>
	<path class="st0" d="M818.11,396.52H574.06c-11.05,0-20-8.95-20-20c0-11.05,8.95-20,20-20h244.05c4.2,0,8.15-1.63,11.11-4.6
		l51.17-51.17c6.08-6.08,6.2-15.73,0.27-21.95l-61.27-64.34c-2.95-3.1-7.1-4.88-11.38-4.88H583.65c-11.05,0-20-8.95-20-20
		s8.95-20,20-20h224.36c15.18,0,29.88,6.3,40.35,17.29l61.27,64.34c10.09,10.59,15.54,24.48,15.37,39.1
		c-0.18,14.63-5.97,28.38-16.32,38.72l-51.17,51.17C846.98,390.72,832.99,396.52,818.11,396.52z"/>
	<path class="st0" d="M449.43,511.56H205.38c-14.88,0-28.87-5.8-39.4-16.32l-51.17-51.17c-10.34-10.34-16.14-24.09-16.31-38.72
		c-0.18-14.63,5.28-28.51,15.37-39.1l61.27-64.34c10.47-10.99,25.17-17.29,40.35-17.29h224.36c11.05,0,20,8.95,20,20s-8.95,20-20,20
		H215.48c-4.28,0-8.43,1.78-11.38,4.88l-61.27,64.34c-5.93,6.23-5.81,15.87,0.27,21.95l51.17,51.17c2.97,2.97,6.92,4.6,11.11,4.6
		h244.05c11.05,0,20,8.95,20,20S460.48,511.56,449.43,511.56z"/>
	<path class="st0" d="M706.98,682.98H588.44c-11.05,0-20-8.95-20-20s8.95-20,20-20h118.54c4.38,0,8.6-1.85,11.57-5.08l20.96-22.8
		c5.72-6.22,5.52-15.78-0.46-21.75l-20.08-20.08c-2.97-2.97-6.92-4.6-11.11-4.6h-133.8c-11.05,0-20-8.95-20-20s8.95-20,20-20h133.8
		c14.88,0,28.88,5.8,39.4,16.32l20.08,20.08c21.18,21.18,21.89,55.05,1.62,77.11l-20.96,22.8
		C737.47,676.42,722.52,682.98,706.98,682.98z"/>
</g>
</svg>
