<?xml version="1.0" encoding="utf-8"?>
<!-- Generator: Adobe Illustrator 23.1.0, SVG Export Plug-In . SVG Version: 6.00 Build 0)  -->
<svg version="1.1" id="图层_1" xmlns="http://www.w3.org/2000/svg" xmlns:xlink="http://www.w3.org/1999/xlink" x="0px" y="0px"
	 viewBox="0 0 1024 1024" style="enable-background:new 0 0 1024 1024;" xml:space="preserve">
<style type="text/css">
</style>
<g>
	<g>
		<path class="st0" d="M763.55,417.54c-5.13,0-10.27-1.96-14.17-5.89l-301.89-303.3c-2.32-2.33-5.04-2.68-6.45-2.68
			c-1.41,0-4.13,0.35-6.45,2.68L132.7,411.65c-7.79,7.83-20.46,7.86-28.28,0.07c-7.83-7.79-7.86-20.46-0.07-28.28l301.89-303.3
			c9.28-9.33,21.64-14.46,34.8-14.46c13.16,0,25.52,5.14,34.8,14.46l301.89,303.3c7.79,7.83,7.76,20.49-0.07,28.28
			C773.76,415.6,768.66,417.54,763.55,417.54z"/>
		<path class="st0" d="M394.32,926.77H146.38V356.5c0-11.05,8.95-20,20-20s20,8.95,20,20v530.28h207.94c11.05,0,20,8.95,20,20
			S405.37,926.77,394.32,926.77z"/>
		<path class="st0" d="M715.7,593.89c-11.05,0-20-8.95-20-20V356.5c0-11.05,8.95-20,20-20s20,8.95,20,20v217.39
			C735.7,584.94,726.74,593.89,715.7,593.89z"/>
	</g>
	<g>
		<path class="st0" d="M748.98,892.15H646.85c-11.05,0-20-8.95-20-20s8.95-20,20-20h97.78V686.59H478.73v165.56h70.45
			c11.05,0,20,8.95,20,20s-8.95,20-20,20h-74.8c-19.66,0-35.65-15.99-35.65-35.65V682.24c0-19.66,15.99-35.65,35.65-35.65h274.61
			c19.66,0,35.65,15.99,35.65,35.65V856.5C784.63,876.15,768.64,892.15,748.98,892.15z"/>
		<path class="st0" d="M889.61,796.71H769.78c-11.05,0-20-8.95-20-20s8.95-20,20-20h60.76l-12.55-31.39c-0.49-1.23-1.67-2.03-3-2.03
			h-45.21c-11.05,0-20-8.95-20-20s8.95-20,20-20h45.21c17.78,0,33.53,10.67,40.13,27.17L889.61,796.71z"/>
		<path class="st0" d="M796.08,884.81h-30.46c-11.05,0-20-8.95-20-20s8.95-20,20-20h30.46c11.05,0,20,8.95,20,20
			S807.12,884.81,796.08,884.81z"/>
		<path class="st0" d="M892.48,884.81h-19.92c-11.05,0-20-8.95-20-20s8.95-20,20-20h13.53v-48.1H765.61c-11.05,0-20-8.95-20-20
			s8.95-20,20-20h126.87c18.53,0,33.6,15.07,33.6,33.6v60.89C926.08,869.73,911.01,884.81,892.48,884.81z M892.48,796.71
			L892.48,796.71L892.48,796.71z"/>
		<path class="st0" d="M603.12,928.85c-31.27,0-56.71-25.44-56.71-56.71s25.44-56.71,56.71-56.71s56.71,25.44,56.71,56.71
			S634.39,928.85,603.12,928.85z M603.12,855.44c-9.21,0-16.71,7.5-16.71,16.71c0,9.21,7.5,16.71,16.71,16.71
			c9.21,0,16.71-7.5,16.71-16.71C619.83,862.93,612.33,855.44,603.12,855.44z"/>
		<path class="st0" d="M835.85,928.85c-31.27,0-56.71-25.44-56.71-56.71s25.44-56.71,56.71-56.71s56.71,25.44,56.71,56.71
			S867.12,928.85,835.85,928.85z M835.85,855.44c-9.21,0-16.71,7.5-16.71,16.71c0,9.21,7.5,16.71,16.71,16.71s16.71-7.5,16.71-16.71
			C852.56,862.93,845.06,855.44,835.85,855.44z"/>
	</g>
	<g>
		<path class="st0" d="M680.09,771.8H559.41c-11.05,0-20-8.95-20-20s8.95-20,20-20h120.68c11.05,0,20,8.95,20,20
			S691.14,771.8,680.09,771.8z"/>
		<path class="st0" d="M584.37,813.42c-4.51,0-9.05-1.52-12.79-4.64l-42.18-35.15c-6.4-5.33-10.17-13.17-10.35-21.5
			c-0.18-8.33,3.25-16.32,9.42-21.92l38.3-34.82c8.17-7.43,20.82-6.83,28.25,1.35c7.43,8.17,6.83,20.82-1.35,28.25l-28.78,26.16
			l32.29,26.91c8.49,7.07,9.63,19.68,2.56,28.17C595.79,810.96,590.1,813.41,584.37,813.42z"/>
	</g>
	<path class="st0" d="M550.28,362.72h-216.4c-11.05,0-20-8.95-20-20s8.95-20,20-20h216.4c11.05,0,20,8.95,20,20
		S561.32,362.72,550.28,362.72z"/>
	<path class="st0" d="M550.28,462.6h-216.4c-11.05,0-20-8.95-20-20s8.95-20,20-20h216.4c11.05,0,20,8.95,20,20
		S561.32,462.6,550.28,462.6z"/>
</g>
</svg>
