<?xml version="1.0" encoding="utf-8"?>
<!-- Generator: Adobe Illustrator 23.1.0, SVG Export Plug-In . SVG Version: 6.00 Build 0)  -->
<svg version="1.1" id="图层_1" xmlns="http://www.w3.org/2000/svg" xmlns:xlink="http://www.w3.org/1999/xlink" x="0px" y="0px"
	 viewBox="0 0 1024 1024" style="enable-background:new 0 0 1024 1024;" xml:space="preserve">
<style type="text/css">
</style>
<g>
	<g>
		<path class="st0" d="M511.99,929.52c-55.84,0-110.02-10.94-161.03-32.52c-49.26-20.84-93.5-50.66-131.49-88.65
			c-37.99-37.99-67.81-82.23-88.65-131.49C109.24,625.85,98.3,571.67,98.3,515.83c0-55.84,10.94-110.02,32.52-161.03
			c20.84-49.26,50.66-93.5,88.65-131.49s82.23-67.81,131.49-88.65c51.01-21.58,105.19-32.52,161.03-32.52
			c12.52,0,25.17,0.57,37.58,1.69c11,0.99,19.12,10.71,18.12,21.71c-0.99,11-10.72,19.11-21.71,18.13
			c-11.23-1.01-22.66-1.52-34-1.52c-206.05,0-373.69,167.64-373.69,373.69c0,206.05,167.64,373.69,373.69,373.69
			c206.05,0,373.69-167.64,373.69-373.69c0-53.5-11.06-105.15-32.88-153.51c-4.54-10.07-0.06-21.91,10.01-26.46
			c10.07-4.54,21.91-0.06,26.46,10.01c24.17,53.56,36.42,110.75,36.42,169.96c0,55.84-10.94,110.02-32.52,161.03
			c-20.84,49.26-50.66,93.5-88.65,131.49c-37.99,37.99-82.23,67.81-131.49,88.65C622.01,918.58,567.83,929.52,511.99,929.52z"/>
		<path class="st0" d="M547.78,313.94h-355.9c-11.05,0-20-8.95-20-20s8.95-20,20-20h355.9c11.05,0,20,8.95,20,20
			S558.83,313.94,547.78,313.94z"/>
		<rect x="118.3" y="488.68" class="st0" width="787.38" height="40"/>
		<rect x="175.57" y="689.1" class="st0" width="672.85" height="40"/>
		<path class="st0" d="M536.27,916.75c-5.53,0-11.07-1.32-16.17-3.99c-11.49-6.02-18.63-17.82-18.63-30.78V122.33h40v749.58
			c90.56-64.8,151.53-144.15,176.59-229.97c19.47-66.69,10.62-114.62,10.53-115.1l39.24-7.77c0.45,2.26,10.81,56.15-10.65,131.59
			c-12.46,43.82-33.15,86.14-61.49,125.8c-35.09,49.11-82.06,94.22-139.6,134.07C550.13,914.66,543.21,916.75,536.27,916.75z"/>
		<path class="st0" d="M491.38,924.32c-151.12-137.38-224.74-282.46-218.81-431.2c2.11-53.05,14.54-106.44,36.93-158.7
			c17.79-41.51,41.87-82.38,71.57-121.49c50.48-66.46,99.45-104.64,101.51-106.23l24.47,31.64l-12.23-15.82l12.25,15.81
			c-0.47,0.36-47.55,37.19-94.9,99.79c-43.11,57-95.39,147.83-99.64,256.9c-5.32,136.26,63.91,270.74,205.77,399.69L491.38,924.32z"
			/>
	</g>
	<path class="st0" d="M726.73,299.62c-42.6,0-77.26-34.66-77.26-77.26s34.66-77.26,77.26-77.26S804,179.75,804,222.36
		S769.33,299.62,726.73,299.62z M726.73,185.09c-20.55,0-37.26,16.72-37.26,37.26s16.72,37.26,37.26,37.26S764,242.9,764,222.36
		S747.28,185.09,726.73,185.09z"/>
	<path class="st0" d="M726.73,467.04l-14.89-16.59c-1.34-1.5-33.3-37.22-65.77-82.37c-45.88-63.8-68.18-111.47-68.18-145.73
		c0-82.07,66.77-148.84,148.84-148.84s148.84,66.77,148.84,148.84c0,34.26-22.3,81.93-68.18,145.73
		c-32.47,45.15-64.43,80.87-65.77,82.37L726.73,467.04z M726.73,113.51c-60.02,0-108.84,48.83-108.84,108.84
		c0,14.18,7.85,48.89,60.46,122.1c18,25.04,36.16,47.44,48.39,61.99c12.22-14.55,30.39-36.95,48.39-61.99
		c52.6-73.21,60.46-107.92,60.46-122.1C835.57,162.34,786.75,113.51,726.73,113.51z"/>
</g>
</svg>
