<?xml version="1.0" standalone="no"?><!DOCTYPE svg PUBLIC "-//W3C//DTD SVG 1.1//EN" "http://www.w3.org/Graphics/SVG/1.1/DTD/svg11.dtd"><svg t="1590477186306" class="icon" viewBox="0 0 1024 1024" version="1.1" xmlns="http://www.w3.org/2000/svg" p-id="3719" xmlns:xlink="http://www.w3.org/1999/xlink" width="200" height="200"><defs><style type="text/css"></style></defs><path d="M631.466667 504.414815c14.222222 0 26.548148-13.274074 26.548148-29.392593 0-16.118519-12.325926-29.392593-26.548148-29.392592h-79.644445l83.437037-79.644445c10.42963-11.377778 11.377778-28.444444 1.896297-39.822222-3.792593-5.688889-10.42963-9.481481-18.014815-9.481482-6.637037-0.948148-14.222222 1.896296-18.962963 6.637038L512 407.703704l-89.125926-84.385185c-4.740741-4.740741-12.325926-6.637037-18.962963-6.637038-6.637037 0.948148-13.274074 3.792593-18.014815 9.481482-9.481481 11.377778-8.533333 29.392593 1.896297 39.822222l84.385185 79.644445h-79.644445c-14.222222 0-26.548148 13.274074-26.548148 29.392592 0 16.118519 12.325926 29.392593 26.548148 29.392593h92.918519v43.614815h-92.918519c-14.222222 0-26.548148 13.274074-26.548148 29.392592 0 16.118519 12.325926 29.392593 26.548148 29.392593h92.918519v72.059259c0 16.118519 12.325926 29.392593 26.548148 29.392593 14.222222 0 26.548148-13.274074 26.548148-29.392593V606.814815h92.918519c14.222222 0 26.548148-13.274074 26.548148-29.392593 0-16.118519-12.325926-29.392593-26.548148-29.392592h-92.918519v-43.614815h92.918519z" p-id="3720"></path><path d="M512 115.674074l332.8 117.57037v279.703704c0 202.903704-262.637037 355.555556-333.748148 393.481482-70.162963-37.925926-332.8-193.422222-332.8-394.42963V232.296296L512 115.674074M512 56.888889c-2.844444 0-5.688889 0.948148-9.481481 1.896296L140.325926 185.837037c-11.377778 3.792593-18.962963 15.17037-18.962963 26.548148V512c0 245.57037 310.992593 418.133333 377.362963 451.318519 3.792593 1.896296 8.533333 2.844444 12.325926 2.844444s8.533333-0.948148 12.325926-2.844444c66.37037-33.185185 378.311111-205.748148 378.311111-451.318519V213.333333c0-12.325926-7.585185-22.755556-18.962963-26.548148L521.481481 58.785185c-3.792593-0.948148-6.637037-1.896296-9.481481-1.896296z" p-id="3721"></path></svg>