<?xml version="1.0" encoding="utf-8"?>
<!-- Generator: Adobe Illustrator 23.1.0, SVG Export Plug-In . SVG Version: 6.00 Build 0)  -->
<svg version="1.1" id="图层_1" xmlns="http://www.w3.org/2000/svg" xmlns:xlink="http://www.w3.org/1999/xlink" x="0px" y="0px"
	 viewBox="0 0 1024 1024" style="enable-background:new 0 0 1024 1024;" xml:space="preserve">
<style type="text/css">
</style>
<g>
	<g>
		<path class="st0" d="M785.04,346.42c-7.41,0-14.85-2.57-20.87-7.81L589.86,186.77c-21.49-18.72-23.75-51.44-5.02-72.93
			c9.07-10.41,21.65-16.67,35.42-17.62c13.79-0.95,27.1,3.52,37.51,12.59l139.96,121.92c3.32,2.89,7.56,4.31,11.95,4.01l29.64-2.04
			c14.95-1.03,29.39,3.82,40.68,13.66l12.88,11.22c6.93,6.04,10.18,15.06,8.68,24.12c-1.49,9.07-7.46,16.57-15.95,20.07
			l-73.54,30.28l-3.03,3.47C802.76,342.73,793.92,346.42,785.04,346.42z M623.82,136.1c-3.27,0-6.52,1.36-8.82,4.01
			c-4.24,4.86-3.73,12.26,1.14,16.5l168.13,146.46l3.84-4.41l60.81-25.03c-2.15-0.83-4.48-1.18-6.85-1.02l-29.64,2.04
			c-15.03,1.04-29.59-3.85-40.97-13.75L631.49,138.97C629.28,137.05,626.54,136.1,623.82,136.1z"/>
		<path class="st0" d="M761.85,252.53l-94.58-82.39l87.93-32.17c14.13-5.17,29.96-2.24,41.31,7.64l16.03,13.97
			c9.98,8.69,15.21,21.75,14,34.93s-8.75,25.06-20.16,31.78L761.85,252.53z M744.59,184.44l21.79,18.98l19.69-11.6
			c0.19-0.11,0.57-0.34,0.63-1c0.06-0.66-0.28-0.95-0.44-1.09l-16.03-13.96c-0.36-0.31-0.85-0.4-1.29-0.24L744.59,184.44z"/>
		<path class="st0" d="M909.54,402.69c-4.66,0-9.34-1.62-13.13-4.92l-47.79-41.63c-8.33-7.26-9.2-19.89-1.94-28.22
			c7.26-8.33,19.89-9.2,28.22-1.94l47.79,41.63c8.33,7.26,9.2,19.89,1.94,28.22C920.68,400.37,915.13,402.69,909.54,402.69z"/>
		<path class="st0" d="M865.86,420.68c-4.66,0-9.34-1.62-13.13-4.92l-47.79-41.63c-8.33-7.26-9.2-19.89-1.94-28.22
			c7.25-8.33,19.89-9.2,28.22-1.94L879,385.6c8.33,7.26,9.2,19.89,1.94,28.22C876.99,418.35,871.44,420.68,865.86,420.68z"/>
	</g>
	<g>
		<path class="st0" d="M510.89,928.32c-55.83,0-109.99-10.94-161-32.51c-49.25-20.83-93.48-50.65-131.46-88.63
			s-67.8-82.21-88.63-131.46c-21.57-51-32.51-105.17-32.51-161c0-55.83,10.94-109.99,32.51-161
			c20.83-49.25,50.65-93.48,88.63-131.46s82.21-67.8,131.46-88.63c51-21.57,105.17-32.51,161-32.51c12.89,0,25.89,0.6,38.65,1.78
			c11,1.02,19.09,10.76,18.07,21.76c-1.02,11-10.76,19.09-21.76,18.07c-11.54-1.07-23.3-1.61-34.96-1.61
			c-206,0-373.59,167.59-373.59,373.59c0,206,167.59,373.59,373.59,373.59c206,0,373.59-167.59,373.59-373.59
			c0-26.88-2.87-53.7-8.52-79.71c-2.35-10.79,4.5-21.45,15.3-23.79c10.79-2.35,21.44,4.5,23.79,15.3
			c6.26,28.8,9.43,58.48,9.43,88.21c0,55.83-10.94,109.99-32.51,161c-20.83,49.25-50.65,93.48-88.63,131.46
			s-82.21,67.8-131.46,88.63C620.88,917.38,566.72,928.32,510.89,928.32z"/>
		<rect x="190.85" y="272.88" class="st0" width="328.9" height="40"/>
		<rect x="117.3" y="487.57" class="st0" width="787.19" height="40"/>
		<rect x="174.55" y="687.94" class="st0" width="672.69" height="40"/>
		<rect x="500.36" y="121.31" class="st0" width="40" height="771.48"/>
		<path class="st0" d="M490.28,923.12C339.2,785.76,265.59,640.72,271.52,492.02c2.11-53.04,14.54-106.42,36.93-158.67
			c17.78-41.5,41.86-82.36,71.55-121.46c50.47-66.45,99.43-104.61,101.49-106.21l24.47,31.64c-1.01,0.79-47.8,37.54-94.86,99.76
			c-43.1,56.98-95.36,147.8-99.62,256.83c-5.31,136.23,63.9,270.67,205.71,399.59L490.28,923.12z M505.95,137.33l-12.23-15.82
			l12.25,15.81C505.96,137.32,505.96,137.33,505.95,137.33L505.95,137.33z"/>
	</g>
	<path class="st0" d="M672.51,342.97h-19.45c-16.27,0-30.13-12.17-32.23-28.3l-0.04-0.33l-12.04-105.73
		c-1.25-10.98,6.63-20.88,17.61-22.13c10.97-1.25,20.88,6.64,22.13,17.61l11.26,98.88h6.79l9.88-42.81
		c2.48-10.76,13.22-17.47,23.99-14.99c10.76,2.48,17.47,13.22,14.99,23.98l-11.22,48.62C700.76,332.61,687.74,342.97,672.51,342.97z
		"/>
	<path class="st0" d="M534.71,923.1c-5.44,0-10.86-2.21-14.8-6.55c-7.43-8.17-6.83-20.82,1.35-28.25
		c166.82-151.65,232.85-309.89,196.27-470.3c-2.46-10.77,4.28-21.49,15.05-23.95c10.76-2.45,21.49,4.28,23.95,15.05
		c18.09,79.35,13.24,159.28-14.42,237.59c-32.76,92.75-98.02,184-193.95,271.21C544.33,921.38,539.51,923.1,534.71,923.1z"/>
</g>
</svg>
