<?xml version="1.0" standalone="no"?><!DOCTYPE svg PUBLIC "-//W3C//DTD SVG 1.1//EN" "http://www.w3.org/Graphics/SVG/1.1/DTD/svg11.dtd"><svg t="1590486036125" class="icon" viewBox="0 0 1024 1024" version="1.1" xmlns="http://www.w3.org/2000/svg" p-id="6277" xmlns:xlink="http://www.w3.org/1999/xlink" width="128" height="128"><defs><style type="text/css"></style></defs><path d="M901.28 827.521H125.31c-20.402 0-37-16.598-37-37V610.738h50v166.783h749.97V608.047h50v182.475c0 20.402-16.598 36.999-37 36.999zM138.31 403.174h-50V239.19c0-20.402 16.598-37 37-37h775.97c20.401 0 37 16.598 37 37v162.196h-50V252.19H138.31v150.984z" p-id="6278"></path><path d="M88.2 625.766v-50c39.082 0 70.878-31.796 70.878-70.877 0-17.224-8.782-35.258-24.094-49.477-14.215-13.202-32.142-21.402-46.784-21.402v-50c27.159 0 57.368 12.996 80.808 34.763 25.84 23.996 40.07 54.579 40.07 86.116 0 66.651-54.225 120.877-120.878 120.877zM938.32 625.766c-66.652 0-120.878-54.226-120.878-120.877 0-31.537 14.23-62.12 40.07-86.116 23.439-21.767 53.648-34.763 80.808-34.763v50c-14.643 0-32.568 8.201-46.784 21.401-15.312 14.219-24.094 32.253-24.094 49.477 0 39.082 31.796 70.877 70.878 70.877v50.001z" p-id="6279"></path><path d="M477.182 465.591a24.921 24.921 0 0 1-17.678-7.322l-91.128-91.129c-9.763-9.763-9.763-25.592 0-35.355 9.764-9.763 25.592-9.762 35.355 0l91.128 91.129c9.763 9.763 9.763 25.592 0 35.355a24.926 24.926 0 0 1-17.677 7.322zM548.041 465.591a24.925 24.925 0 0 1-17.678-7.322c-9.763-9.763-9.763-25.592 0-35.355l91.128-91.129c9.764-9.763 25.592-9.763 35.355 0 9.763 9.763 9.763 25.592 0 35.355l-91.128 91.129a24.921 24.921 0 0 1-17.677 7.322z" p-id="6280"></path><path d="M654.46 468.01H371.816c-13.807 0-25-11.193-25-25s11.193-25 25-25H654.46c13.808 0 25 11.193 25 25s-11.192 25-25 25zM654.46 580.287H371.816c-13.807 0-25-11.193-25-25s11.193-25 25-25H654.46c13.808 0 25 11.193 25 25s-11.192 25-25 25z" p-id="6281"></path><path d="M513.138 723.684c-13.807 0-25-11.193-25-25V443.802c0-13.807 11.193-25 25-25s25 11.193 25 25v254.882c0 13.806-11.194 25-25 25zM113.146 428.242c-13.807 0-25-11.193-25-25V239.258c0-20.402 16.598-37 37-37h166.707c13.807 0 25 11.193 25 25s-11.193 25-25 25H138.146v150.984c0 13.807-11.193 25-25 25zM913.768 431.005c-13.807 0-25-11.193-25-25V252.298H737.783c-13.808 0-25-11.193-25-25s11.192-25 25-25h163.984c20.402 0 37 16.598 37 37v166.707c0.001 13.807-11.192 25-24.999 25zM900.7 827.686H733.992c-13.807 0-25-11.193-25-25s11.193-25 25-25H887.7V606.701c0-13.807 11.193-25 25-25 13.808 0 25 11.193 25 25v183.984c0 20.403-16.597 37.001-37 37.001zM291.927 827.944H125.22c-20.402 0-37-16.599-37-37V606.959c0-13.807 11.193-25 25-25s25 11.193 25 25v170.985h153.707c13.807 0 25 11.192 25 25 0 13.807-11.193 25-25 25z" p-id="6282"></path></svg>