<?xml version="1.0" standalone="no"?><!DOCTYPE svg PUBLIC "-//W3C//DTD SVG 1.1//EN" "http://www.w3.org/Graphics/SVG/1.1/DTD/svg11.dtd"><svg t="1590485193094" class="icon" viewBox="0 0 1024 1024" version="1.1" xmlns="http://www.w3.org/2000/svg" p-id="3980" xmlns:xlink="http://www.w3.org/1999/xlink" width="128" height="128"><defs><style type="text/css"></style></defs><path d="M316.3 931.5c-37.7 0-74.7-11-107-32.2-43.6-28.7-73.5-72.6-84.1-123.8-10.6-51.1-0.6-103.3 28-147l275.5-419.3c37.9-57.7 95.9-97.1 163.5-111.1s136.5-0.8 194.2 37.1c57.7 37.9 97.1 96 111.1 163.5 14 67.6 0.8 136.5-37.1 194.2L647.7 816.8c-11.6 17.7-35.4 22.6-53.1 11-17.7-11.6-22.6-35.4-11-53.1l212.8-323.9c26.6-40.6 35.9-89.1 26.1-136.6-9.8-47.5-37.6-88.4-78.1-115-40.5-26.6-89-35.9-136.6-26.1-47.5 9.8-88.4 37.6-115 78.1L217.3 670.7c-17.4 26.5-23.5 58.3-17.1 89.4 6.4 31.1 24.6 57.8 51.1 75.2 54.7 35.9 128.4 20.7 164.5-33.9l243.9-369.5c8.2-12.4 11.1-27.3 8.1-41.9-3-14.6-11.5-27.1-23.9-35.3-25.6-16.9-60.2-9.7-77 16L386.5 645.2c-11.6 17.7-35.4 22.6-53.1 11-17.7-11.6-22.6-35.4-11-53.1l180.3-274.5c40.1-61 122.2-78 183.2-37.9 29.6 19.4 49.8 49.2 56.9 83.9 7.1 34.7 0.3 70-19.2 99.5L479.8 843.6c-28.7 43.5-72.7 73.3-123.7 83.8-13.3 2.7-26.6 4.1-39.8 4.1z" p-id="3981"></path></svg>