<?xml version="1.0" standalone="no"?><!DOCTYPE svg PUBLIC "-//W3C//DTD SVG 1.1//EN" "http://www.w3.org/Graphics/SVG/1.1/DTD/svg11.dtd"><svg t="1590476513417" class="icon" viewBox="0 0 1024 1024" version="1.1" xmlns="http://www.w3.org/2000/svg" p-id="10533" xmlns:xlink="http://www.w3.org/1999/xlink" width="128" height="128"><defs><style type="text/css"></style></defs><path d="M453.4 170.7c39.1 39.1 58.6 86.2 58.6 141.4s-19.5 102.3-58.6 141.4-86.2 58.6-141.4 58.6-102.3-19.5-141.4-58.6S112 367.3 112 312.1s19.5-102.3 58.6-141.4 86.2-58.6 141.4-58.6 102.3 19.5 141.4 58.6z m408.5-25.3c0 6.9-2.3 13.6-6.8 19.8L305.2 898.4c-6.6 9-15.4 13.6-26.5 13.6h-83.4c-9 0-16.9-3.3-23.4-9.9-6.6-6.6-9.9-14.5-9.9-23.4 0-6.9 2.3-13.6 6.8-19.8l549.9-733.3c6.6-9 15.4-13.6 26.5-13.6h83.4c9 0 16.9 3.3 23.4 9.9 6.7 6.6 9.9 14.5 9.9 23.5zM358.9 359c13.1-13.1 19.8-28.8 19.8-46.9s-6.6-33.6-19.8-46.9c-13.3-13.1-28.8-19.8-46.9-19.8s-33.6 6.6-46.9 19.8c-13.3 13.3-19.8 28.8-19.8 46.9s6.6 33.6 19.8 46.9c13.1 13.3 28.8 19.8 46.9 19.8 18.1-0.1 33.7-6.7 46.9-19.8z m494.5 211.6C892.5 609.7 912 656.8 912 712s-19.5 102.3-58.6 141.4S767.2 912 712 912s-102.3-19.5-141.4-58.6C531.5 814.3 512 767.2 512 712s19.5-102.3 58.6-141.4C609.7 531.5 656.8 512 712 512s102.3 19.6 141.4 58.6z m-94.5 188.3c13.1-13.1 19.8-28.8 19.8-46.9 0-18.1-6.6-33.6-19.8-46.9-13.1-13.1-28.8-19.8-46.9-19.8-18.1 0-33.6 6.6-46.9 19.8s-19.8 28.8-19.8 46.9c0 18.1 6.6 33.7 19.8 46.9 13.1 13.1 28.8 19.8 46.9 19.8 18.1 0 33.6-6.6 46.9-19.8z" p-id="10534"></path></svg>